<svg width="147.93" height="23.91" viewBox="0 0 147.93 23.91" xmlns="http://www.w3.org/2000/svg"><g id="svgGroup" stroke-linecap="round" fill-rule="evenodd" font-size="9pt" stroke="#000" stroke-width="0.3mm" fill="#fff" style="stroke:#000;stroke-width:0.3mm;fill:#fff"><path d="M 87.51 15.54 L 86.25 15.12 L 86.25 23.55 L 79.35 23.55 L 79.35 23.25 L 67.14 23.25 L 67.14 23.55 L 60.21 23.55 L 60.21 15.36 L 59.7 15.54 Q 59.64 15.36 59.61 15.165 Q 59.584 14.997 59.558 14.863 A 5.631 5.631 0 0 0 59.55 14.82 A 157.511 157.511 0 0 0 59.392 14.079 Q 59.164 13.028 58.995 12.33 A 17.404 17.404 0 0 0 58.582 10.901 A 20.118 20.118 0 0 0 58.41 10.41 Q 62.705 10.295 65.278 9.689 A 15.333 15.333 0 0 0 65.52 9.63 L 59.13 9.63 L 59.13 6.39 L 62.31 6.39 L 62.31 5.91 L 68.31 5.91 L 68.31 6.39 L 69.99 6.39 L 69.99 5.52 Q 67.35 5.55 64.695 5.55 L 59.4 5.55 Q 59.4 2.658 59.122 1.536 A 3.152 3.152 0 0 0 59.07 1.35 Q 72.36 1.32 87.39 0.93 A 6.035 6.035 0 0 0 87.266 1.597 Q 87.107 2.756 87.092 4.948 A 68.7 68.7 0 0 0 87.09 5.43 Q 84.45 5.43 81.795 5.445 Q 79.14 5.46 76.5 5.49 L 76.5 6.39 L 78.12 6.39 L 78.12 5.91 L 84.12 5.91 L 84.12 6.39 L 87.33 6.39 L 87.33 9.63 L 81.69 9.63 A 19.528 19.528 0 0 0 83.506 9.99 Q 85.56 10.305 88.393 10.398 A 66.727 66.727 0 0 0 88.8 10.41 Q 88.44 11.4 88.215 12.33 A 50.422 50.422 0 0 0 88.096 12.834 Q 87.966 13.395 87.809 14.123 A 159.111 159.111 0 0 0 87.66 14.82 Q 87.634 14.949 87.608 15.111 A 10.843 10.843 0 0 0 87.6 15.165 Q 87.57 15.36 87.51 15.54 Z M 117.36 0.99 L 117.36 18.03 L 117.96 18.03 L 117.96 23.28 L 102.06 23.28 L 102.06 22.41 L 100.68 22.53 Q 100.323 22.589 99.583 22.649 A 36.007 36.007 0 0 1 99.57 22.65 Q 99.36 18.33 99.36 14.7 L 102.63 14.55 Q 102.63 15.861 102.684 17.823 A 218.336 218.336 0 0 0 102.69 18.03 L 103.26 18.03 L 103.26 13.77 L 99.48 14.25 L 99.42 13.59 L 98.82 13.68 L 98.82 23.58 L 93.12 23.58 L 93.12 14.28 Q 91.08 14.49 88.95 14.64 Q 88.95 11.91 88.68 10.23 L 90.96 10.17 L 91.98 9.18 A 36.924 36.924 0 0 0 90.754 8.052 A 43.297 43.297 0 0 0 90.15 7.53 A 34.673 34.673 0 0 0 89.505 6.995 Q 89.214 6.76 88.955 6.564 A 14.648 14.648 0 0 0 88.47 6.21 L 90.57 2.1 A 27.591 27.591 0 0 1 90.803 2.276 A 23.177 23.177 0 0 1 91.02 2.445 A 19.27 19.27 0 0 1 91.223 2.606 A 15.838 15.838 0 0 1 91.41 2.76 Q 91.923 2.042 92.505 1.016 A 36.239 36.239 0 0 0 93.06 0 L 98.01 1.08 L 97.47 1.8 Q 95.52 4.32 94.59 5.4 L 95.01 5.82 A 72.994 72.994 0 0 0 97.661 2.379 A 61.163 61.163 0 0 0 99.06 0.36 L 103.26 1.5 L 103.26 0.99 L 117.36 0.99 Z M 147.93 14.88 L 146.07 21.81 L 143.76 20.19 A 4.18 4.18 0 0 1 141.794 22.713 A 5.539 5.539 0 0 1 141.615 22.815 A 7.249 7.249 0 0 1 139.357 23.59 A 9.772 9.772 0 0 1 137.67 23.73 Q 133.05 23.73 130.548 22.429 A 7.059 7.059 0 0 1 130.14 22.2 A 5.557 5.557 0 0 1 128.606 20.865 Q 127.705 19.701 127.627 18.096 A 6.343 6.343 0 0 1 127.62 17.79 A 5.883 5.883 0 0 1 127.897 15.937 A 4.681 4.681 0 0 1 129.765 13.5 A 7.827 7.827 0 0 1 132.207 12.409 Q 133.638 12.03 135.42 12.03 A 8.86 8.86 0 0 1 135.641 12.033 Q 136.063 12.044 136.89 12.09 L 136.89 9.48 A 345.439 345.439 0 0 0 133.612 9.538 Q 131.018 9.596 128.88 9.69 L 128.88 3.18 Q 132.78 3 136.89 3 L 136.89 1.47 L 143.91 1.47 L 143.91 3.03 L 147.57 3.12 L 147.57 9.42 L 143.91 9.42 L 143.91 13.5 A 62.789 62.789 0 0 1 146.493 14.348 A 52.063 52.063 0 0 1 147.93 14.88 Z M 47.618 1.25 A 18.187 18.187 0 0 0 43.41 0.78 A 17.772 17.772 0 0 0 42.891 0.788 A 15.044 15.044 0 0 0 36.03 2.595 Q 32.7 4.41 30.78 7.545 Q 28.86 10.68 28.86 14.49 Q 28.86 15.919 29.157 17.118 A 7.197 7.197 0 0 0 30.975 20.475 A 6.931 6.931 0 0 0 34.393 22.381 A 10.255 10.255 0 0 0 36.81 22.65 A 9.913 9.913 0 0 0 38.37 22.533 A 7.341 7.341 0 0 0 40.23 21.99 A 6.187 6.187 0 0 0 41.529 21.2 A 7.432 7.432 0 0 0 42.81 19.89 Q 45.06 21.48 46.44 23.91 A 16.655 16.655 0 0 0 47.618 23.68 A 13.953 13.953 0 0 0 52.125 21.78 Q 54.6 20.16 55.98 17.685 A 10.764 10.764 0 0 0 56.584 16.415 A 11.288 11.288 0 0 0 57.36 12.21 Q 57.36 8.97 55.545 6.36 A 11.421 11.421 0 0 0 53.696 4.292 A 13.191 13.191 0 0 0 50.55 2.265 A 15.2 15.2 0 0 0 47.618 1.25 Z M 9.983 23.087 A 35.476 35.476 0 0 0 13.5 23.25 Q 19.41 23.25 25.02 22.74 A 36.867 36.867 0 0 1 25.025 22.143 Q 25.039 21.264 25.096 20.481 A 20.599 20.599 0 0 1 25.26 18.96 Q 25.425 17.846 25.93 16.335 A 31.52 31.52 0 0 1 26.46 14.88 A 158.161 158.161 0 0 1 23.908 15.27 Q 22.696 15.445 21.613 15.578 A 75.976 75.976 0 0 1 19.2 15.84 Q 16.23 16.11 13.5 16.11 A 26.552 26.552 0 0 1 12.928 16.104 Q 11.22 16.067 10.014 15.805 A 6.958 6.958 0 0 1 8.88 15.465 A 3.315 3.315 0 0 1 8.557 15.314 Q 7.29 14.633 7.29 13.08 A 7.203 7.203 0 0 1 7.291 12.989 Q 7.294 12.718 7.318 12.519 A 2.006 2.006 0 0 1 7.35 12.33 A 75.334 75.334 0 0 1 5.363 12.713 A 64.902 64.902 0 0 1 0.09 13.44 Q 0 14.19 0 14.94 Q 0 17.179 0.964 18.809 A 6.903 6.903 0 0 0 3.39 21.195 A 9.523 9.523 0 0 0 3.938 21.503 Q 6.277 22.717 9.983 23.087 Z M 1.44 5.1 L 1.41 2.7 A 102.667 102.667 0 0 1 10.833 1.807 A 87.423 87.423 0 0 1 14.91 1.71 A 77.802 77.802 0 0 1 22.615 2.079 A 66.688 66.688 0 0 1 25.92 2.49 A 458.003 458.003 0 0 0 26.044 7.671 A 527.29 527.29 0 0 0 26.1 9.48 A 98.479 98.479 0 0 0 19.001 8.804 A 79.465 79.465 0 0 0 14.46 8.67 A 74.183 74.183 0 0 0 4.855 9.317 A 86.62 86.62 0 0 0 1.23 9.87 Q 1.44 7.53 1.44 5.1 Z M 120.42 1.83 L 127.74 1.83 A 114.766 114.766 0 0 0 127.246 6.305 Q 126.93 9.844 126.93 12.75 A 49.417 49.417 0 0 0 127.011 15.65 Q 127.092 17.022 127.253 18.243 A 30.086 30.086 0 0 0 127.275 18.405 Q 127.62 20.91 128.25 23.31 L 120.72 23.64 Q 120.21 21.09 119.94 18.72 Q 119.67 16.35 119.67 13.41 A 77.186 77.186 0 0 1 119.775 9.518 Q 119.951 6.049 120.42 1.83 Z M 43.92 18.03 A 14.225 14.225 0 0 0 45.562 17.609 Q 47.352 17.025 48.298 16.06 A 4.102 4.102 0 0 0 48.42 15.93 A 4.945 4.945 0 0 0 49.522 13.814 Q 49.713 13.07 49.737 12.193 A 9.322 9.322 0 0 0 49.74 11.94 Q 49.74 8.823 47.182 7.497 A 6.68 6.68 0 0 0 46.44 7.17 A 76.237 76.237 0 0 1 46.098 9.81 Q 45.789 11.886 45.405 13.545 Q 44.893 15.757 44.203 17.396 A 15.194 15.194 0 0 1 43.92 18.03 Z M 67.8 12.54 L 79.41 12.54 A 37.54 37.54 0 0 1 77.276 11.56 A 32.214 32.214 0 0 1 76.5 11.16 L 76.5 12.03 L 69.99 12.03 L 69.99 11.52 Q 69.15 11.94 67.8 12.54 Z M 91.32 14.91 L 92.64 14.88 Q 92.64 16.901 92.587 18.307 A 42.397 42.397 0 0 1 92.55 19.11 A 22.82 22.82 0 0 1 92.44 20.378 Q 92.314 21.499 92.07 22.83 A 6.271 6.271 0 0 0 91.964 22.816 Q 91.7 22.783 91.007 22.708 A 244.458 244.458 0 0 0 90.885 22.695 Q 90.139 22.615 89.172 22.596 A 31.431 31.431 0 0 0 88.56 22.59 A 24.982 24.982 0 0 0 88.955 20.932 Q 89.159 19.914 89.235 19.02 Q 89.326 17.952 89.355 16.491 A 74.878 74.878 0 0 0 89.37 14.97 A 19.373 19.373 0 0 0 89.728 14.966 Q 90.33 14.955 91.32 14.91 Z M 100.47 6.18 L 101.85 6.03 Q 102.558 8.665 102.944 10.695 A 32.278 32.278 0 0 1 103.26 12.66 L 103.26 2.82 L 100.47 6.18 Z M 37.2 15.48 Q 37.83 15.48 38.205 14.895 A 2.53 2.53 0 0 0 38.392 14.533 Q 38.657 13.916 38.915 12.73 A 23.708 23.708 0 0 0 38.94 12.615 Q 39.3 10.92 39.78 7.29 A 6.54 6.54 0 0 0 37.688 8.663 A 6.191 6.191 0 0 0 36.87 9.66 A 6.359 6.359 0 0 0 35.848 12.675 A 7.932 7.932 0 0 0 35.82 13.35 A 4.922 4.922 0 0 0 35.869 14.074 Q 36.002 14.966 36.502 15.292 A 1.25 1.25 0 0 0 37.2 15.48 Z M 70.29 19.56 L 70.29 18.87 L 67.14 18.87 L 67.14 19.56 L 70.29 19.56 Z M 79.35 18.87 L 76.23 18.87 L 76.23 19.56 L 79.35 19.56 L 79.35 18.87 Z M 111.57 18.03 L 111.57 16.68 L 109.11 16.68 L 109.11 18.03 L 111.57 18.03 Z M 67.14 15.51 L 67.14 16.14 L 70.29 16.14 L 70.29 15.51 L 67.14 15.51 Z M 109.11 7.23 L 111.57 7.23 L 111.57 5.91 L 109.11 5.91 L 109.11 7.23 Z M 109.11 11.31 L 109.11 12.63 L 111.57 12.63 L 111.57 11.31 L 109.11 11.31 Z M 76.23 15.51 L 76.23 16.14 L 79.35 16.14 L 79.35 15.51 L 76.23 15.51 Z M 136.89 17.01 L 136.89 16.71 A 4.303 4.303 0 0 0 136.352 16.621 Q 136.092 16.594 135.803 16.59 A 7.103 7.103 0 0 0 135.72 16.59 A 3.593 3.593 0 0 0 135.356 16.607 Q 134.986 16.645 134.75 16.766 A 1 1 0 0 0 134.715 16.785 A 1.032 1.032 0 0 0 134.56 16.891 Q 134.37 17.05 134.37 17.25 A 0.523 0.523 0 0 0 134.467 17.547 Q 134.578 17.711 134.816 17.863 A 1.982 1.982 0 0 0 134.82 17.865 A 1.743 1.743 0 0 0 135.357 18.085 Q 135.58 18.138 135.839 18.148 A 3.189 3.189 0 0 0 135.96 18.15 A 1.071 1.071 0 0 0 136.367 18.079 Q 136.89 17.865 136.89 17.01 Z M 97.26 10.02 L 98.85 9.93 L 98.55 8.49 L 97.26 10.02 Z" vector-effect="non-scaling-stroke"/></g></svg>